<?xml version="1.0" encoding="utf-8"?>
<!-- Generator: Adobe Illustrator 23.0.3, SVG Export Plug-In . SVG Version: 6.00 Build 0)  -->
<svg version="1.1" id="Calque_1" xmlns="http://www.w3.org/2000/svg" xmlns:xlink="http://www.w3.org/1999/xlink" x="0px" y="0px"
	 viewBox="0 0 170.5 52.1" style="enable-background:new 0 0 170.5 52.1;" xml:space="preserve">
<style type="text/css">
	.st0{fill:#008B4D;}
</style>
<title>dekra</title>
<path class="st0" d="M17.1,14.5v12.9c0,0.3-0.1,0.7-0.3,0.9c-2.4,1.4-4.8,2.8-7.3,4.2v-27c0-1,0.1-1.9,1-2.4
	c0.9-0.3,1.8-0.2,2.6,0.4c7.8,4.5,15.6,9,23.3,13.5c2.1,1.2,4,2.7,4.5,5.2c0.9,3.4-0.6,7-3.7,8.8C26,37.4,14.8,43.9,3.7,50.3
	c-0.1,0.1-0.3,0.1-0.5,0.3c0-0.3-0.1-0.5-0.1-0.8v-7.2c-0.1-0.5,0.2-1,0.6-1.2c7.9-4.5,15.8-9.1,23.7-13.6l6.3-3.6L17.1,14.5z"/>
<path class="st0" d="M48.3,41.4V12c0.1,0,0.2-0.1,0.4-0.1c3.5,0.1,7,0,10.5,0.4c4.7,0.5,8.7,3.6,10.4,8c1.7,3.8,1.8,8.1,0.4,12
	c-1.8,4.8-5.6,8.7-11.4,9.2C55.1,41.6,51.7,41.4,48.3,41.4z M54,36.5c1,0.1,2,0.1,3,0c3-0.4,5.5-1.7,6.8-4.7c1-2.5,1.3-5.3,0.7-8
	c-0.3-2.9-2.3-5.3-5.1-6.2c-1.4-0.4-2.8-0.6-4.3-0.7c-1.2-0.2-1.2-0.1-1.2,1v17.4C54,35.7,54,36,54,36.5L54,36.5z"/>
<path class="st0" d="M140.4,41.5c-2.3,0-4.4,0-6.4,0c-0.3,0-0.6-0.4-0.8-0.7c-2.1-3.5-4.3-7-6.4-10.5c-0.1-0.2-0.2-0.3-0.6-0.8v11.9
	h-5.7V11.9c2.8,0,5.7-0.1,8.5,0c1.4,0,2.8,0.2,4.2,0.6c4.6,1.6,7,6.6,5.5,11.1c-0.8,2.5-2.7,4.4-5.1,5.3c-0.4,0.1-0.7,0.3-1.2,0.4
	L140.4,41.5z M126.2,16.5c0,2.9,0,5.7,0,8.5c0,0.2,0.4,0.5,0.6,0.5c0.8,0.1,1.6,0,2.3,0c1.8,0,3.4-1.1,4-2.8
	c0.6-1.9,0.1-3.9-1.4-5.3C130.1,16.1,128.2,16.6,126.2,16.5L126.2,16.5z"/>
<path class="st0" d="M117.6,41.5c-2.4,0-4.6,0-6.8,0c-0.4,0-0.8-0.3-1-0.6c-2.8-4-5.6-7.9-8.5-11.9c-0.2-0.3-0.5-0.6-0.8-0.7v13.2
	h-5.7V11.9h5.7v12.2l0.2,0.1c0.8-1.1,1.6-2.2,2.4-3.3c2.1-2.8,4.2-5.7,6.3-8.6c0.2-0.3,0.6-0.5,0.9-0.5c2.1,0,4.1,0,6.4,0
	l-11.1,13.6L117.6,41.5z"/>
<path class="st0" d="M167.6,41.8c-1.9,0-3.7,0-5.5,0c-0.3,0-0.6-0.4-0.7-0.7c-0.6-1.6-1.2-3.2-1.8-4.8c-0.1-0.5-0.6-0.9-1.1-0.8
	c-2.9,0-5.8,0-8.6,0c-0.5-0.1-1,0.3-1.1,0.8c-0.6,1.7-1.3,3.3-1.9,4.9c-0.1,0.3-0.4,0.5-0.7,0.6c-1.8,0.1-3.5,0-5.5,0
	c0.5-1.3,0.9-2.4,1.4-3.6c3.2-8.2,6.3-16.4,9.5-24.6c0.6-1.5,1.4-2.1,2.8-2.1c1.3,0,2.5,0.9,2.9,2.2l4.6,12.4l5.6,14.8
	C167.5,41.2,167.5,41.5,167.6,41.8z M157.8,30.8l-3.3-10.7h-0.2l-3.6,10.6L157.8,30.8z"/>
<path class="st0" d="M89.3,23.5v4.9h-9v8.1h9.3v5h-15V11.9h15.1v4.8h-9.4v6.7H89.3z"/>
</svg>
