<?xml version="1.0" encoding="utf-8"?>
<!-- Generator: Adobe Illustrator 23.0.3, SVG Export Plug-In . SVG Version: 6.00 Build 0)  -->
<svg version="1.1" id="Calque_1" xmlns="http://www.w3.org/2000/svg" xmlns:xlink="http://www.w3.org/1999/xlink" x="0px" y="0px"
	 viewBox="0 0 189.9 125.8" style="enable-background:new 0 0 189.9 125.8;" xml:space="preserve">
<style type="text/css">
	.st0{fill:#E7010C;}
	.st1{fill:#3E4795;}
	.st2{fill:#3C3C3A;}
	.st3{fill:#3B3B39;}
	.st4{fill:#3D3D3B;}
	.st5{fill:#3E3E3C;}
	.st6{fill:#40403E;}
	.st7{fill:#FBFBFB;}
	.st8{fill:#FCFCFC;}
	.st9{fill:#FAFAFA;}
	.st10{fill:#EEEEEE;}
	.st11{font-family:'Montserrat-Bold';}
	.st12{font-size:12px;}
</style>
<title>Fichier 4</title>
<path class="st0" d="M105.9,41.5c-1.7-0.1-3.3-0.7-4.7-1.5c-4-2.3-8-4.8-12-7.1C80.6,27.8,72,22.7,63.4,17.6c-1.7-1-3.6-1.9-5.3-2.8
	c-0.7-0.4-1.4-0.3-2.1,0c-5.7,2.6-11.1,5.7-16.6,8.7c-9.2,5-18.5,10-27.7,15c-1.8,1-3.6,1.5-5.7,1.3c-1.3-0.1-2.5-0.6-3.6-1.4
	c-0.9-0.7-0.9-1.5-0.1-2.2C3,35.6,3.8,35,4.7,34.6c16.3-9.1,32.7-18.1,49-27.2c0.9-0.5,1.9-1,2.9-1.3c1.4-0.6,2.8-0.5,4.2,0.3
	c9.3,5,18.7,10,27.9,15.1c8,4.4,15.8,8.9,23.7,13.4c0.7,0.4,1.3,0.8,1.9,1.3c0.8,0.7,0.8,1.4,0,2c-0.9,0.7-1.8,1.3-2.7,1.8
	C109.8,41,107.9,41.5,105.9,41.5z"/>
<path class="st1" d="M56.1,117.8c-5.8-0.2-11.5-0.7-17.2-1.8c-6.6-1.3-12.9-3.2-18.9-6c-2.8-1.3-5.6-2.5-8-4.4
	c-0.4-0.3-0.7-0.7-0.9-1.1c-0.5-0.8-0.4-1.4,0.2-2.1c1.9-2.1,4.2-3.4,7-4.1c1.3-0.3,2.5,0.1,3.6,0.7c2.6,1.5,5.3,3,8,4.3
	c5.9,2.9,12.1,4.9,18.6,6c4.2,0.7,8.4,1.2,12.6,1.1c5-0.1,9.9-0.9,14.7-2.1c8.4-2.2,16.2-5.6,23.3-10.5c0.5-0.3,1-0.7,1.5-0.9
	c1.2-0.6,2,0,2,1.3c0,1.8-0.8,3.3-1.9,4.6c-2,2.3-4.5,3.9-7.2,5.4c-7.8,4.3-16.2,7-25,8.5c-3.4,0.6-6.8,1-10.2,1.1
	C57.5,117.7,56.8,117.8,56.1,117.8z"/>
<path class="st2" d="M84,51.1c0-2.9,0-5.7,0-8.6c0-0.9,0.1-1,1-1c3.5,0,6.9,0,10.4,0c0.9,0,0.9,0.1,0.9,0.9c0,0.7,0,1.5,0,2.2
	s-0.1,0.8-0.8,0.8c-2.2,0-4.3,0-6.5,0c-0.5,0-0.8,0.1-0.7,0.7c0,0.7,0,1.5,0,2.2c0,0.5,0.2,0.6,0.6,0.6c1.7,0,3.5,0,5.2,0
	c0.8,0,0.8,0,0.8,0.8c0,0.7,0,1.4,0,2.1c0,0.9,0,1-1,1c-1.7,0-3.3,0-5,0c-0.5,0-0.7,0.1-0.7,0.7c0,0.7,0,1.5,0,2.2
	c0,0.9,0,0.9,0.8,0.9c2.1,0,4.2,0,6.2,0c0.9,0,1,0.1,1,1c0,0.7,0,1.4,0,2.1c0,0.8-0.1,0.9-0.9,0.9c-3.2,0-6.3,0-9.5,0
	c-0.3,0-0.7,0-1,0c-0.8,0-0.9-0.1-0.9-0.9c0-2.6,0-5.2,0-7.8C84,51.7,84,51.4,84,51.1z"/>
<path class="st3" d="M60.1,60.8c-5.6,0.1-10.4-4-10.3-9.9c0.1-5.8,5.1-10.2,10.9-9.6c2,0.2,3.6,1,5.1,2.3c0.6,0.5,0.6,0.6,0.1,1.2
	c-0.6,0.6-1.1,1.2-1.7,1.8c-0.4,0.5-0.7,0.4-1.2,0c-1.7-1.3-3.6-1.6-5.6-0.7c-2.1,0.9-3.4,3.4-3.1,5.8c0.3,2.5,2,4.3,4.4,4.7
	c1.6,0.3,3-0.1,4.2-1c0.5-0.4,0.9-0.3,1.3,0.2c0.5,0.6,1,1.1,1.6,1.7c0.4,0.4,0.4,0.8-0.1,1.1C64.1,60,62.1,60.8,60.1,60.8z"/>
<path class="st2" d="M47.2,60.5c-0.1,0-0.3,0-0.4,0c-1.3,0.3-2-0.4-2.3-1.5s-0.9-1.4-2-1.3c-1.7,0.1-3.4,0.1-5.1,0
	c-0.7,0-1.1,0.2-1.3,0.8c-0.1,0.4-0.4,0.8-0.5,1.3c-0.2,0.5-0.6,0.8-1.2,0.8c-0.8,0-1.7,0-2.5,0c-0.8,0-1-0.2-0.6-1
	c1.3-2.9,2.7-5.7,4-8.6c1.4-3,2.7-6,4.2-8.9c0.1-0.3,0.5-0.7,0.8-0.7s0.6,0.4,0.8,0.7c2.7,5.8,5.4,11.6,8.1,17.4
	c0.4,0.8,0.3,1-0.7,1C48,60.6,47.6,60.6,47.2,60.5L47.2,60.5z M42.3,54c-0.7-1.5-1.4-3-2.1-4.5c-0.7,1.6-1.3,3-2,4.5
	C39.6,54,40.9,54,42.3,54z"/>
<path class="st3" d="M23.3,53.7c0,2,0,3.8,0,5.7c0,0.2,0.1,0.5,0,0.7s-0.3,0.5-0.5,0.5c-1,0.1-2.1,0.1-3.1,0c-0.2,0-0.4-0.3-0.5-0.4
	s0-0.3,0-0.5c0-5.7,0-11.4,0-17c0-0.9,0.1-0.9,0.9-1c2.1,0,4.2-0.1,6.3,0c2.6,0,4.6,1.5,5.5,4c0.8,2.4,0.1,4.9-2,6.6
	c-1.1,0.9-2.4,1.3-3.8,1.4C25.2,53.7,24.3,53.7,23.3,53.7z M23.3,47.6c0,0.6,0,1.1,0,1.7c0,0.2,0.3,0.4,0.4,0.4c0.8,0,1.6,0,2.4-0.1
	c1-0.1,1.8-0.9,1.9-1.9c0.1-1.1-0.6-2-1.7-2.1c-0.8-0.1-1.7-0.1-2.6-0.1c-0.4,0-0.5,0.2-0.5,0.5C23.3,46.6,23.3,47.1,23.3,47.6z"/>
<path class="st3" d="M72.4,45.5c-1.2,0-2.4,0-3.5,0c-0.8,0-0.9-0.1-0.9-0.8c0-0.8,0-1.6,0-2.4c0-0.5,0.2-0.7,0.7-0.7
	c3.9,0,7.8,0,11.7,0c0.5,0,0.7,0.2,0.7,0.7c0,0.9,0,1.7,0,2.6c0,0.5-0.2,0.7-0.7,0.6c-1,0-2,0-3.1,0c-0.5,0-0.7,0.2-0.7,0.7
	c0,4.4,0,8.9,0,13.3c0,1,0,1-1.1,1c-0.8,0-1.6,0-2.4,0c-0.7,0-0.8-0.1-0.8-0.8c0-4.5,0-9.1,0-13.6C72.4,45.9,72.4,45.8,72.4,45.5z"
	/>
<path class="st2" d="M75.7,74.3c-0.1,0-0.2,0-0.2,0c-0.4-0.1-1.1-0.1-1.1-0.2c-0.1-0.7-0.1-1.4,0-2c0-0.1,0.3-0.2,0.5-0.2
	c1.1,0,2.2,0,3.3,0c0.2,0,0.5,0.3,0.5,0.4c0,1.6,0,3.1,0,4.7c0,0.2-0.3,0.4-0.4,0.5c-2,1-4.1,1.3-6.2,0.8c-2.9-0.7-5.2-3.8-4.9-6.6
	c0.3-3.5,2.8-6,6.1-6.3c1.9-0.1,3.6,0.3,5.1,1.5c0.3,0.3,0.4,0.5,0.1,0.9c-0.3,0.3-0.6,0.6-0.9,1c-0.4,0.5-0.7,0.5-1.2,0.1
	c-2.4-1.6-5.5-0.1-5.8,2.8c-0.2,2.5,2.5,4.7,4.9,3.8C76,75.2,75.7,74.7,75.7,74.3z"/>
<path class="st2" d="M33,71.4c0,1.9,0,3.8,0,5.8c0,1.1,0,1.1-1.1,1.1c-0.4,0-0.8,0-1.2,0s-0.5-0.1-0.5-0.5c0-4,0-7.9,0-11.9
	c0-0.2,0.2-0.5,0.3-0.5c0.2,0,0.5,0.1,0.7,0.2c1.5,1.4,2.9,2.8,4.3,4.2c0.9,0.9,1.8,1.7,2.8,2.7c0-1.2,0-2.3,0-3.3s0-2,0-2.9
	c0-0.4,0.1-0.7,0.6-0.6c0.6,0,1.1,0,1.7,0c0.4,0,0.6,0.1,0.6,0.6c0,3.9,0,7.9,0,11.8c0,0.2-0.2,0.6-0.2,0.6c-0.3,0-0.7-0.1-0.8-0.2
	c-0.9-0.9-1.8-1.9-2.7-2.8C35.9,74.1,34.4,72.8,33,71.4z"/>
<path class="st2" d="M62.8,73.2c0.8,1.5,1.6,2.9,2.4,4.4c0.3,0.6,0.2,0.8-0.4,0.8c-0.2,0-0.4,0-0.6,0c-2.1,0-1.5,0.3-2.5-1.6
	c-0.5-1-1-2-1.5-3c-0.3-0.6-0.7-0.5-1.2-0.5c-0.5,0.1-0.4,0.5-0.4,0.8c0,1.2,0,2.4,0,3.6c0,0.5-0.2,0.7-0.7,0.7s-1,0-1.6,0
	c-0.5,0-0.7-0.2-0.7-0.7c0-0.1,0-0.2,0-0.2c0-3.7,0-7.4,0-11.1c0-0.8,0.1-0.9,0.8-0.9c1.6,0,3.2,0,4.9,0c2.8,0,4.7,2.5,3.9,5.1
	c-0.3,1-1,1.7-1.9,2.3C63.2,73,63.1,73.1,62.8,73.2z M58.6,68.2c0,0.9,0,1.7,0,2.5c0,0.1,0.2,0.3,0.3,0.3c0.9,0,1.8,0,2.7-0.1
	c0.7-0.1,1.1-0.8,1.1-1.5c-0.1-0.7-0.6-1.3-1.3-1.3C60.5,68.1,59.6,68.2,58.6,68.2z"/>
<path class="st4" d="M90.9,68.2c0,0.8,0,1.5,0,2.3c1.1,0,2.3,0,3.4,0c1,0,1.1,0,1,1.1c0,1.8,0.2,1.6-1.6,1.6c-1,0-1.9,0-2.9,0
	c0,0.8,0,1.6,0,2.5c1.4,0,2.8,0,4.1,0c1.3,0,1.3,0,1.3,1.3c0,1.7,0,1.4-1.4,1.4c-2.1,0-4.1,0-6.2,0c-0.6,0-0.8-0.2-0.8-0.8
	c0-3.8,0-7.5,0-11.3c0-0.6,0.2-0.8,0.8-0.8c2.3,0,4.5,0,6.8,0c0.5,0,0.7,0.2,0.7,0.7c0,2.2,0.3,1.9-1.9,2
	C93.2,68.2,92.1,68.2,90.9,68.2z"/>
<path class="st5" d="M47.6,68.2c0,0.8,0,1.5,0,2.3c1.2,0,2.4,0,3.6,0c0.8,0,0.8,0,0.8,0.8c0,1.8,0,1.8-1.8,1.8c-0.9,0-1.7,0-2.6,0
	c0,0.8,0,1.6,0,2.5c1.4,0,2.7,0,4.1,0c1.3,0,1.3,0,1.3,1.2c0,1.6,0.2,1.4-1.4,1.4c-2,0-4,0-6.1,0c-0.6,0-0.7-0.2-0.7-0.8
	c0-3.8,0-7.6,0-11.4c0-0.5,0.2-0.7,0.7-0.7c2.3,0,4.6,0,6.9,0c0.5,0,0.8,0.2,0.7,0.7c0,0.4,0,0.9,0,1.3c0,0.5-0.2,0.7-0.7,0.7
	C50.8,68.2,49.2,68.2,47.6,68.2z"/>
<path class="st2" d="M22,68.2c0,0.8,0,1.5,0,2.3c0.7,0,1.4,0,2,0s1.3,0,1.9,0c0.4,0,0.6,0.2,0.6,0.6c0,0.5,0,0.9,0,1.4
	s-0.2,0.8-0.7,0.7c-1.1,0-2.2,0-3.2,0c-0.4,0-0.6,0.1-0.6,0.6c0,0.6,0,1.2,0,2c0.4,0,0.8,0,1.3,0c1.2,0,2.3,0,3.5,0
	c0.5,0,0.7,0.2,0.7,0.7c0,0.4,0,0.8,0,1.2c0.1,0.6-0.2,0.8-0.8,0.8c-1.2,0-2.4,0-3.6,0c-1.1,0-2.1,0-3.2,0c-0.5,0-0.7-0.2-0.7-0.7
	c0-3.8,0-7.6,0-11.4c0-0.5,0.2-0.7,0.7-0.7c2.3,0,4.6,0,6.9,0c0.6,0,0.8,0.2,0.7,0.7c0,0.4,0,0.8,0,1.2c0.1,0.6-0.2,0.8-0.8,0.7
	c-1.4,0-2.8,0-4.2,0C22.3,68.2,22.2,68.2,22,68.2z"/>
<path class="st4" d="M31.3,82.6c2.7,0,4.8,2.2,4.7,4.9c0,2.5-2.2,4.7-4.7,4.7c-2.9,0-5-2.1-4.9-4.9C26.4,84.7,28.6,82.6,31.3,82.6z
	 M31.2,90.2c1.6,0,2.7-1.2,2.7-2.7c0-1.6-1.2-2.8-2.8-2.7c-1.5,0-2.7,1.3-2.6,2.7C28.6,89,29.7,90.2,31.2,90.2z"/>
<path class="st5" d="M49.7,87.4c0-1.3,0-2.7,0-4c0-0.5,0.1-0.7,0.6-0.7c1.2,0.1,2.5,0,3.7,0.1c2.3,0.3,4,2.5,3.8,4.9
	c-0.1,2.3-2,4.2-4.4,4.4c-1.1,0.1-2.2,0-3.3,0c-0.4,0-0.5-0.2-0.5-0.6C49.7,90.2,49.7,88.8,49.7,87.4z M51.8,90.2
	c1.5,0.1,2.9,0,3.7-1.5c0.5-1,0.5-2-0.2-2.9c-0.9-1.2-2.1-1.2-3.5-1C51.8,86.6,51.8,88.4,51.8,90.2z"/>
<path class="st5" d="M73.9,88.5c0.6,1.2,1.3,2.4,2,3.7c-0.8,0-1.5,0-2.1,0c-0.2,0-0.4-0.3-0.5-0.5c-0.4-0.8-0.9-1.7-1.3-2.6
	c-0.1-0.2-0.3-0.4-0.4-0.5c-0.5-0.3-0.8-0.1-0.8,0.5c0,0.8,0,1.7,0,2.5c0,0.4-0.1,0.6-0.6,0.6c-1.7-0.1-1.4,0.2-1.4-1.5
	c0-2.4,0-4.8,0-7.2c0-0.5,0.2-0.7,0.7-0.7c1.2,0,2.3,0,3.5,0c1.5,0,2.4,0.7,2.8,1.9c0.4,1.3,0,2.4-1.1,3.3
	C74.3,88.1,74.1,88.3,73.9,88.5z M70.7,84.7c0,0.6,0,1.2,0,1.7c0,0.1,0.2,0.4,0.3,0.4c0.6,0,1.2,0,1.8,0c0.5,0,0.9-0.5,0.9-1.1
	s-0.4-1-0.9-1C72.1,84.7,71.5,84.7,70.7,84.7z"/>
<path class="st2" d="M92.2,88.4c0,0.5,0,1,0,1.4c0,0.1,0.3,0.4,0.5,0.4c0.9,0,1.9,0,2.8,0c0.2,0,0.4,0,0.7,0c0,0.5,0,1,0,1.5
	c0,0.1-0.3,0.3-0.4,0.4c-1.7,0-3.5,0-5.2,0c-0.1,0-0.4-0.3-0.4-0.4c0-2.8,0-5.6,0-8.4c0-0.4,0.2-0.5,0.5-0.5c1.7,0,3.4,0,5.1,0
	c0.3,0,0.5,0.2,0.5,0.5c-0.1,1.5,0.4,1.5-1.4,1.5c-0.7,0-1.4,0-2.1,0c-0.4,0-0.6,0.1-0.5,0.5c0,1.4-0.2,1.2,1.1,1.2
	c0.5,0,1.1,0,1.6,0c0.4,0,0.6,0.2,0.6,0.6c0,1.4,0,1.4-1.4,1.4C93.6,88.4,92.9,88.4,92.2,88.4z"/>
<path class="st4" d="M67.3,92.2c-0.6,0-1.2,0.1-1.7,0c-0.2,0-0.5-0.3-0.6-0.5c-0.2-0.6-0.6-0.9-1.3-0.9c-0.8,0-1.6,0-2.4,0
	c-0.2,0-0.5,0.2-0.6,0.3c-0.3,1-0.9,1.2-1.8,1.1c-0.2,0-0.4,0-0.7,0c0-0.2,0-0.4,0.1-0.5c1.3-2.8,2.6-5.7,4-8.5
	c0.1-0.2,0.3-0.3,0.4-0.4c0.1,0,0.3,0.2,0.4,0.3c1.4,2.9,2.7,5.8,4,8.7C67.2,91.8,67.2,91.9,67.3,92.2z M62.8,86.7
	c-0.4,0.8-0.7,1.5-1,2.3c0.7,0,1.3,0,2.1,0C63.5,88.2,63.2,87.5,62.8,86.7z"/>
<path class="st4" d="M22,92.3c-1.1,0-2-0.2-2.8-0.8c-0.3-0.2-0.4-0.5-0.2-0.8c0.1-0.1,0.1-0.2,0.2-0.3c0.4-0.8,0.4-0.7,1.2-0.3
	c0.5,0.2,1,0.4,1.5,0.4c0.3,0,0.7-0.3,0.8-0.5c0.1-0.3,0-0.8-0.3-1c-0.5-0.4-1.1-0.7-1.7-1c-0.9-0.5-1.7-1.2-1.9-2.3
	c-0.2-1.6,0.9-2.8,2.6-3c1.1-0.1,2.2,0.2,3.2,0.8c0.3,0.2,0.4,0.4,0.2,0.8c-0.9,1.3-0.7,1.1-1.8,0.6c-0.3-0.1-0.6-0.3-0.9-0.3
	s-0.7,0.2-1,0.4c-0.3,0.3-0.1,0.7,0.2,0.9c0.4,0.3,0.8,0.5,1.2,0.7c0.4,0.2,0.8,0.3,1.1,0.6c1.2,0.7,1.7,1.8,1.5,2.9
	c-0.2,1.2-1.2,2.1-2.5,2.3C22.3,92.3,22.1,92.3,22,92.3z"/>
<path class="st4" d="M81.6,71.9c0-1.9,0-3.8,0-5.7c0-0.5,0.2-0.7,0.7-0.7s1,0,1.4,0c0.6,0,0.8,0.2,0.8,0.8c0,2.6,0,5.2,0,7.7
	c0,1.2,0,2.4,0,3.6c0,0.5-0.2,0.7-0.6,0.7c-0.5,0-1.1,0-1.6,0s-0.6-0.2-0.6-0.7C81.6,75.7,81.6,73.8,81.6,71.9L81.6,71.9z"/>
<path class="st5" d="M86.2,84.7c0,0.3,0,0.5,0,0.7c0,2,0,4,0,6.1c0,0.5-0.2,0.7-0.6,0.7c-1.6,0-1.4,0.1-1.4-1.4c0-1.8,0-3.7,0-5.5
	c0-0.4-0.1-0.6-0.6-0.6c-0.1,0-0.2,0-0.3,0c-1.4,0-1.6-0.2-1.3-1.6c0-0.1,0.3-0.3,0.4-0.3c1.9,0,3.7,0,5.6,0c0.1,0,0.2,0,0.2,0
	c0.1,0.5,0.2,1,0.2,1.5c0,0.1-0.3,0.3-0.5,0.3C87.3,84.7,86.8,84.7,86.2,84.7z"/>
<path class="st4" d="M38,87.5c0-1.4,0-2.7,0-4.1c0-0.5,0.1-0.6,0.6-0.6c1.4,0,1.4,0,1.4,1.4c0,1.8,0,3.5,0,5.3
	c0,0.6,0.2,0.8,0.7,0.7c0.7-0.1,1.4,0,2.1,0c0.4,0,0.6,0.1,0.6,0.6c-0.1,1.5,0.2,1.4-1.4,1.4c-1.2,0-2.3,0-3.5,0
	c-0.5,0-0.7-0.1-0.7-0.7C38,90.2,38,88.8,38,87.5L38,87.5z"/>
<path class="st4" d="M44.9,87.4c0-1.3,0-2.6,0-3.9c0-0.6,0.1-0.8,0.8-0.8c1.4,0.1,1.4-0.2,1.4,1.4c0,2.4,0,4.7,0,7.1
	c0,0.9,0,0.9-0.9,0.9c-1.3,0-1.2,0.2-1.2-1.2C44.9,89.8,44.9,88.6,44.9,87.4z"/>
<path class="st6" d="M80,87.5c0,1.3,0,2.6,0,3.9c0,0.5-0.1,0.8-0.7,0.8c-1.5-0.1-1.3,0.2-1.3-1.3c0-2.4,0-4.9,0-7.3
	c0-0.6,0.1-0.8,0.7-0.8c1.5,0.1,1.3-0.2,1.3,1.3C80,85.2,80,86.4,80,87.5z"/>
<path class="st7" d="M42.3,54c-1.4,0-2.7,0-4.1,0c0.7-1.5,1.3-3,2-4.5C40.9,51,41.6,52.5,42.3,54z"/>
<path class="st7" d="M23.3,47.6c0-0.5,0-1,0-1.6c0-0.4,0.1-0.6,0.5-0.5c0.9,0,1.7,0,2.6,0.1c1,0.1,1.7,1.1,1.7,2.1
	c-0.1,1-0.9,1.9-1.9,1.9c-0.8,0.1-1.6,0.1-2.4,0.1c-0.2,0-0.4-0.3-0.4-0.4C23.2,48.8,23.3,48.2,23.3,47.6z"/>
<path class="st8" d="M58.6,68.2c1,0,1.9,0,2.8,0c0.7,0,1.2,0.6,1.3,1.3c0.1,0.7-0.4,1.4-1.1,1.5c-0.9,0.1-1.8,0.1-2.7,0.1
	c-0.1,0-0.3-0.2-0.3-0.3C58.6,69.9,58.6,69,58.6,68.2z"/>
<path class="st8" d="M31.2,90.2c-1.5,0-2.6-1.1-2.7-2.7c0-1.4,1.2-2.7,2.6-2.7c1.5,0,2.7,1.1,2.8,2.7C33.9,89,32.7,90.1,31.2,90.2z"
	/>
<path class="st8" d="M51.8,90.2c0-1.8,0-3.6,0-5.4c1.3-0.1,2.6-0.1,3.5,1c0.7,0.9,0.8,1.9,0.2,2.9C54.7,90.2,53.3,90.3,51.8,90.2z"
	/>
<path class="st9" d="M70.7,84.7c0.8,0,1.4,0,2.1,0c0.6,0,0.9,0.4,0.9,1s-0.3,1.1-0.9,1.1s-1.2,0-1.8,0c-0.1,0-0.3-0.2-0.3-0.4
	C70.7,85.8,70.7,85.3,70.7,84.7z"/>
<path class="st10" d="M62.8,86.7c0.4,0.8,0.7,1.5,1,2.3c-0.7,0-1.3,0-2.1,0C62.1,88.2,62.4,87.5,62.8,86.7z"/>
<g>
	<path class="st3" d="M152.7,116c-2.8,0-5.4,0-8.1,0c0.1-0.3,0.3-0.4,0.4-0.4c1.5-0.6,1.9-1.9,1.9-3.3c0.1-2.7,0.1-5.4,0.1-8.1
		c0-1.7,0-3.5,0-5.1c0-0.6-0.3-0.8-0.8-0.8c-0.5,0-0.9,0-1.4,0c-0.3,0-0.9,0.3-0.8-0.4c0-0.5,0.1-1,0.8-1c0.5,0,1,0,1.5,0
		c0.5,0,0.6-0.1,0.6-0.6c0.1-1.4,0.3-3,1-4.2c1.3-2.3,3.5-3.5,6-3.6c0.6,0,1.4,0,2.1,0c0.1,0,0.4,0.3,0.4,0.4
		c-0.4,1.2-0.8,2.2-1.2,3.3c-0.1,0-0.1,0-0.3,0c-0.1-0.4-0.4-0.6-0.5-1c-0.4-0.6-0.8-1.4-1.8-1.5c-1.2-0.1-1.9,0.4-2.4,1.4
		c-0.3,0.5-0.4,1.2-0.4,1.7c0,1.2,0,2.3,0,3.5c0,0.5,0.3,0.8,0.8,0.8c1.7,0,3.3,0,4.9,0c0.5,0,0.8-0.1,0.8-0.8
		c0-1.7,0.3-3.2,1.3-4.6c1.4-2.1,3.5-3.1,5.9-3.1c0.8,0,1.5,0,2.6,0c-0.5,1.4-0.9,2.6-1.3,3.9c-0.1,0-0.1,0-0.3,0
		c-0.3-0.4-0.4-0.8-0.6-1.2c-0.4-0.8-0.9-1.4-1.9-1.4c-1,0-1.8,0.4-2.2,1.3c-0.3,0.6-0.4,1.3-0.5,2.1c-0.1,1,0,2.1,0,3.1
		c0,0.8,0.3,0.9,0.9,0.9c0.8,0,1.5,0,2.3,0c0.3,0,0.8-0.1,0.8,0.4c0,0.4-0.1,1-0.8,1c-0.8,0-1.7,0-2.4,0c-0.5,0-0.8,0.1-0.8,0.8
		c0,4,0,7.8,0,11.8c0,0.8,0.1,1.7,0.3,2.4c0.1,1,0.6,1.8,1.7,2.3c0.1,0,0.3,0.1,0.3,0.1s0,0.1,0.1,0.3c-2.7,0-5.3,0-7.8,0V116
		c0.3-0.1,0.4-0.3,0.6-0.4c0.8-0.4,1.3-1.2,1.4-2.1c0.1-1.4,0.4-2.8,0.4-4.2c0-3.3,0-6.7,0-10c0-0.8-0.3-0.9-0.9-0.9
		c-1.5,0-3.1,0-4.8,0c-0.5,0-0.8,0.1-0.8,0.8c0,4,0,8.1,0,12.1c0,0.6,0.1,1.3,0.1,1.8c0.1,1.2,0.6,2.2,1.8,2.7
		C152.3,115.6,152.5,115.8,152.7,116z"/>
	<path class="st3" d="M142.4,97c-0.1-0.3-0.1-0.4-0.3-0.6c-2.2-2.7-5-3.9-8.4-4c-2.4-0.1-4.8-0.1-7.2-0.1c-0.6,0-0.9,0.3-0.9,0.9
		c0,2.7,0,5.5,0,8.2c0,0.5,0.1,0.9,0.8,0.9c2.7,0,5.5,0,8.2-0.1c1.7-0.1,3.1-1,3.9-2.6c0.1-0.1,0.3-0.3,0.4-0.5
		c0.4,0.5,0.4,6.9,0,7.6c-0.1-0.1-0.3-0.3-0.3-0.4c-0.8-1.8-2.2-2.6-4-2.7c-1.9-0.3-3.9-0.1-5.7-0.3c-0.9,0-1.7,0-2.6,0
		c-0.4,0-0.6,0.1-0.6,0.6c0,3,0,5.8,0,8.7c0,1.3,0.6,1.9,1.9,2.1c3.3,0.3,6.7,0.3,10-0.5c2.2-0.5,4.1-1.7,5.5-3.5
		c0.3-0.3,0.5-0.5,0.8-0.8h0.1c0,0.1,0,0.4,0,0.5c-0.5,1.5-1,3-1.4,4.5c-0.1,0.6-0.5,0.8-1.2,0.8c-6.6,0-13.1,0-19.7,0
		c-0.5,0-1,0-1.5,0.1c-0.3,0-0.4,0-0.6,0v-0.1c0.1-0.1,0.4-0.3,0.5-0.4c0.9-0.4,1.4-1,1.5-1.9c0.3-1.5,0.4-3.1,0.4-4.6
		c0-4.6,0-9.3,0-13.9c0-0.5-0.1-1-0.1-1.5c-0.1-0.8-0.6-1.4-1.4-1.7c-0.1,0-0.3-0.1-0.4-0.4c0.3,0,0.5-0.1,0.8-0.1
		c6.4,0,12.9,0,19.3,0c0.6,0,0.9,0.3,1,0.8c0.4,1.3,0.9,2.4,1.3,3.7c0.1,0.3,0.1,0.6,0.3,1C142.7,96.9,142.6,97,142.4,97z"/>
	<path class="st3" d="M182,97c2.2,0,4.4,0,6.6,0c-0.1,0.1-0.1,0.3-0.3,0.4c-1.8,1.3-3,3.1-4,5c-2.6,5-5,10.2-7.6,15.2
		c-0.8,1.5-1.8,3.1-3,4.5c-1.3,1.7-3.2,2.6-5.4,2.3c-0.4,0-0.8-0.1-0.5-0.6c0.4-1.2,0.9-2.3,1.3-3.3c0-0.1,0.1-0.1,0.3-0.3
		c0.1,0.1,0.3,0.3,0.3,0.3c0.8,1.4,2.7,1.5,4.1,0.3c1.4-1.4,1.9-3.1,1.3-5c-0.6-1.7-1.4-3.5-2.3-5c-1.7-3.3-3.3-6.7-5-10
		c-0.6-1.2-1.3-2.3-2.4-3c-0.1,0-0.1-0.1-0.3-0.4c2.3,0,4.5,0,6.8,0v0.1c-0.1,0.1-0.4,0.3-0.5,0.3c-0.9,0.4-1.2,0.8-0.8,1.7
		c0.5,1.2,1,2.3,1.7,3.5c1.8,3.3,3.5,6.7,5.3,9.9c0,0.1,0.1,0.1,0.3,0.4c0.1-0.3,0.3-0.4,0.4-0.6c1.5-3.3,3.1-6.7,4.6-10
		c0.4-0.8,0.6-1.5,0.9-2.4c0.4-1.4,0-2.1-1.4-2.6c-0.1-0.1-0.4-0.1-0.5-0.3C182,97.1,182,97,182,97z"/>
</g>
<text transform="matrix(1 0 0 1 101.3272 114.4479)" class="st3 st11 st12">By</text>
</svg>
