<?xml version="1.0" encoding="utf-8"?>
<!-- Generator: Adobe Illustrator 23.0.6, SVG Export Plug-In . SVG Version: 6.00 Build 0)  -->
<svg version="1.1" id="Layer_1" xmlns="http://www.w3.org/2000/svg" xmlns:xlink="http://www.w3.org/1999/xlink" x="0px" y="0px"
	 viewBox="0 0 512 512" style="enable-background:new 0 0 512 512;" xml:space="preserve">
<style type="text/css">
	.st0{fill:#1E7DC2;}
</style>
<g>
	<g>
		<g>
			<path class="st0" d="M508.9,198L260.4,20.5c-2.6-1.9-6.1-1.9-8.7,0l-103.6,74V60.7h1.4c4.1,0,7.5-3.4,7.5-7.5s-3.4-7.5-7.5-7.5
				H69.6c-4.1,0-7.5,3.4-7.5,7.5s3.4,7.5,7.5,7.5H71v88.8L3.1,198c-2,1.4-3.1,3.7-3.1,6.1v44.4c0,2.8,1.6,5.4,4.1,6.7
				s5.5,1.1,7.8-0.6L26.6,244v232.1c0,5.2,2.4,10,6.6,13.1c2.9,2.1,6.3,3.2,9.7,3.2c1.6,0,3.2-0.2,4.8-0.7l64.7-19.4
				c10.8-3.2,18-12.9,18-24.2V434c11.2,5.2,23.7,8.2,36.9,8.2c13.1,0,25.6-2.9,36.9-8.2v14.1c0,11.2,7.2,21,18,24.2
				c12.3,3.7,24.9,5.5,37.6,5.5c11.6,0,23.2-1.5,34.4-4.6l4-1.1c11-3,18.6-13,18.6-24.4v-1.3c9,3,18.4,4.6,28,4.6s19-1.6,28-4.6v1.3
				c0,11.4,7.7,21.4,18.6,24.4l73.3,20c1.4,0.4,2.9,0.6,4.4,0.6c3.5,0,7-1.2,9.9-3.4c4.1-3.1,6.4-7.9,6.4-13V244l14.8,10.5
				c1.3,0.9,2.8,1.4,4.4,1.4c1.2,0,2.4-0.3,3.4-0.8c2.5-1.3,4.1-3.9,4.1-6.7V204C512,201.7,510.8,199.4,508.9,198z M86,60.7h47.1
				v44.4L86,138.8V60.7z M167.2,427.4c-39.9,0-72.4-32.5-72.4-72.4c0-4.1-3.4-7.5-7.5-7.5c-5.7,0-10.2-4.6-10.2-10.2
				c0-5.7,4.6-10.2,10.2-10.2h11.4c7.1,0,13.3-4.5,15.5-11.2l5.2-15.5c17.6-0.4,73.2-2.9,104.4-18.5c3.7-1.9,5.2-6.4,3.4-10.1
				c-1.9-3.7-6.4-5.2-10.1-3.4c-33.5,16.7-102.5,17-103.1,17c-3.2,0-6.1,2.1-7.1,5.1l-6.9,20.6c-0.2,0.6-0.7,0.9-1.3,0.9H87.4
				c-0.5,0-0.9,0-1.4,0v-36.9c0-30.1,24.5-54.6,54.6-54.6h71c9.4,0,17.3,6.8,18.8,16.1c0.4,2.3,1.7,4.2,3.7,5.4
				c8.9,5,14.4,14.3,14.4,24.3v2.1c-5.7,12.9-8.9,27.2-8.9,42.3c0,20.9-1,43-2.4,63C228.8,405.2,200,427.4,167.2,427.4z
				 M226.4,458.1c-4.4-1.3-7.3-5.3-7.3-9.8v-23c5.5-4.1,10.6-8.8,15.1-14.1c-1.8,18.9-3.3,31.4-3.4,31.7c-0.3,2.1,0.4,4.2,1.7,5.8
				c0.4,0.5,4,4.6,12.4,9.8c2.4,1.5,5,3,7.7,4.3C243.7,462.2,235,460.7,226.4,458.1z M301.8,447.9L301.8,447.9
				c0,4.6-3.1,8.7-7.6,9.9l-4,1.1c-1,0.3-2.1,0.5-3.1,0.8c-24.1-6.4-36.4-15-41-18.8c1.2-10.1,4.4-39,6.5-72.7
				c1.6,0.9,3.2,1.6,5,2.1c0.3,4.4,1,8.7,1.9,13c4.3,19,15.1,36.3,30.3,48.6c3.7,3,7.7,5.7,11.9,8.1L301.8,447.9L301.8,447.9z
				 M344.8,436.2c-16.7,0-32.5-5.6-45.5-16.1c-12.6-10.2-21.5-24.5-25.1-40.2c-1.2-5.2-1.8-10.7-1.8-16.1c0-4.1-3.4-7.5-7.5-7.5
				c-5.7,0-10.2-4.6-10.2-10.2c0-5.7,4.6-10.2,10.2-10.2c22.7,0,39.2-20.6,46.7-32.1c17.5,11.3,37.5,15.2,55.4,18.8
				c33,6.5,50.2,11.4,50.2,41.3c0,5.4-0.6,10.8-1.8,16.1c-3.6,15.7-12.5,30-25.1,40.2C377.2,430.7,361.5,436.2,344.8,436.2z
				 M395.3,457.8c-4.4-1.2-7.6-5.3-7.6-9.9v-8c4.2-2.4,8.1-5,11.9-8.1c15.2-12.3,26-29.6,30.3-48.6c1.4-6.3,2.2-12.9,2.2-19.4
				c0-43.7-31.6-50-62.2-56c-19.6-3.9-39.8-7.9-55.9-20.8c-1.8-1.4-4.1-1.9-6.3-1.5c-2.2,0.5-4.1,1.9-5.1,4c0,0.1-4.2,8.4-11.4,16.4
				c-6,6.8-15.5,15-26.3,15c-3.7,0-7.2,0.8-10.4,2.2c0.1-4.2,0.1-8.4,0.1-12.5c0-49.7,40.4-90.1,90.1-90.1s90.1,40.4,90.1,90.1
				c0,53.7,6.7,114.7,8.5,130.3c-4.6,3.9-16.9,12.4-41.1,18.8L395.3,457.8z M497,233.9l-41.4-29.6c-3.4-2.4-8.1-1.6-10.5,1.7
				c-2.4,3.4-1.6,8.1,1.7,10.5l23.5,16.8v243.2c0,0.6-0.3,0.9-0.5,1.1s-0.7,0.4-1.2,0.2l-40.5-11c20.5-8.6,28.4-17.7,28.8-18.2
				c1.4-1.6,2-3.7,1.7-5.8c-0.1-0.7-8.8-71.3-8.8-132.2c0-58-47.2-105.1-105.1-105.1c-34.9,0-65.9,17.1-85,43.4
				c-3.3-7.2-8.5-13.5-15.2-18.1c-3.9-14.8-17.2-25.3-32.9-25.3h-71c-38.4,0-69.6,31.2-69.6,69.6V318c-5.4,4.6-8.9,11.5-8.9,19.2
				c0,11.4,7.6,21.1,18,24.2c1.9,26.1,15.4,49.1,35.3,63.8v23.1c0,4.6-2.9,8.5-7.3,9.8l-64.7,19.4c-0.5,0.2-1,0-1.2-0.2
				c-0.3-0.2-0.6-0.5-0.6-1.1V233.3L256,80.2l164.2,117.3c3.4,2.4,8.1,1.6,10.5-1.7c2.4-3.4,1.6-8.1-1.7-10.5L260.4,64.9
				c-2.6-1.9-6.1-1.9-8.7,0L15,233.9V208L256,35.8L497,208V233.9z"/>
		</g>
	</g>
	<g>
		<g>
			<path class="st0" d="M189.7,375.8c-3.2-2.6-7.9-2.1-10.5,1.1c-3.2,3.9-7.4,6.1-11.9,6.1s-8.7-2.2-11.9-6.1
				c-2.6-3.2-7.3-3.7-10.5-1.1s-3.7,7.3-1.1,10.5c6,7.4,14.6,11.7,23.6,11.7s17.6-4.2,23.6-11.7
				C193.4,383.1,192.9,378.4,189.7,375.8z"/>
		</g>
	</g>
	<g>
		<g>
			<path class="st0" d="M131.8,329.7c-4.1,0-7.5,3.4-7.5,7.5v8.9c0,4.1,3.4,7.5,7.5,7.5c4.1,0,7.5-3.4,7.5-7.5v-8.9
				C139.2,333.1,135.9,329.7,131.8,329.7z"/>
		</g>
	</g>
	<g>
		<g>
			<path class="st0" d="M202.8,329.7c-4.1,0-7.5,3.4-7.5,7.5v8.9c0,4.1,3.4,7.5,7.5,7.5s7.5-3.4,7.5-7.5v-8.9
				C210.2,333.1,206.9,329.7,202.8,329.7z"/>
		</g>
	</g>
	<g>
		<g>
			<path class="st0" d="M367.2,384.7c-3.2-2.6-7.9-2.1-10.5,1.1c-3.2,3.9-7.4,6.1-11.9,6.1s-8.7-2.2-11.9-6.1
				c-2.6-3.2-7.3-3.7-10.5-1.1s-3.7,7.3-1.1,10.5c6,7.4,14.6,11.7,23.6,11.7s17.6-4.2,23.6-11.7C370.9,392,370.4,387.3,367.2,384.7z
				"/>
		</g>
	</g>
	<g>
		<g>
			<path class="st0" d="M309.2,338.6c-4.1,0-7.5,3.4-7.5,7.5v8.9c0,4.1,3.4,7.5,7.5,7.5s7.5-3.4,7.5-7.5v-8.9
				C316.8,342,313.4,338.6,309.2,338.6z"/>
		</g>
	</g>
	<g>
		<g>
			<path class="st0" d="M380.2,338.6c-4.1,0-7.5,3.4-7.5,7.5v8.9c0,4.1,3.4,7.5,7.5,7.5s7.5-3.4,7.5-7.5v-8.9
				C387.8,342,384.4,338.6,380.2,338.6z"/>
		</g>
	</g>
</g>
</svg>
