<?xml version="1.0" encoding="utf-8"?>
<!-- Generator: Adobe Illustrator 23.0.4, SVG Export Plug-In . SVG Version: 6.00 Build 0)  -->
<svg version="1.1" id="Layer_1" xmlns="http://www.w3.org/2000/svg" xmlns:xlink="http://www.w3.org/1999/xlink" x="0px" y="0px"
	 viewBox="0 0 512 512" style="enable-background:new 0 0 512 512;" xml:space="preserve">
<style type="text/css">
	.st0{fill:#CE4078;}
</style>
<g>
	<g>
		<path class="st0" d="M246.7,270.5l-52-15.7v-21.1c19.2-14.3,32.2-36.5,34-61.8c10-3,17.4-12.4,17.4-23.4c0-7.1-3.2-13.9-8.6-18.5
			V79.7c0-13.8-7-26.7-18.3-34.4c-3.8-14.4-16.6-24.5-31.7-24.5h-68.5c-37.1,0-67.2,30.3-67.2,67.5V130c-5.4,4.6-8.6,11.4-8.6,18.5
			c0,11,7.3,20.4,17.4,23.4c1.8,25.3,14.8,47.6,34,61.8v21.1l-62.2,18.7c-14,4.2-23.5,17-23.5,31.7v84c0,4,3.2,7.3,7.2,7.3h1.3v87.3
			c0,4,3.2,7.3,7.2,7.3s7.2-3.3,7.2-7.3v-87.3h28.4v87.3c0,4,3.2,7.3,7.2,7.3s7.2-3.3,7.2-7.3V346.3c0-1.1-0.3-2.2-0.8-3.3
			l-17.1-34.4c-1.8-3.6-6.1-5-9.7-3.3c-3.6,1.8-5,6.2-3.2,9.8L60.3,348v34H24.7h-1.3v-76.7c0-8.2,5.3-15.4,13.2-17.8l26-7.8
			c8.8,37.7,42.9,65.3,82.1,65.3c20.2,0,39.7-7.3,55-20.5c13.6-11.7,23-27.5,27.1-44.8l15.8,4.8c0.7,0.2,1.4,0.3,2.1,0.3
			c3.1,0,6-2,6.9-5.2C252.7,275.7,250.5,271.7,246.7,270.5z M74.8,165.7c0-4-3.2-7.3-7.2-7.3c-5.5,0-9.9-4.5-9.9-9.9
			c0-3.5,1.9-6.7,5-8.5c0.2-0.1,0.3-0.2,0.5-0.3c1.4-0.7,2.9-1.1,4.5-1.1h11c6.8,0,12.8-4.4,15-10.9l5-15
			c17-0.4,70.7-2.8,100.8-17.9c3.6-1.8,5-6.2,3.2-9.8c-1.8-3.6-6.1-5-9.7-3.3C160.5,98,93.9,98.2,93.2,98.2c-3.1,0-5.9,2-6.9,5
			l-6.6,19.9c-0.2,0.5-0.7,0.9-1.3,0.9h-11c-0.4,0-0.9,0-1.3,0V88.3c0-29.2,23.7-52.9,52.7-52.9h68.5c9.1,0,16.7,6.6,18.1,15.6
			c0.3,2.2,1.7,4.1,3.6,5.2c8.5,4.8,13.9,13.9,13.9,23.5v54c0,2.6,1.4,5,3.6,6.3c3.1,1.8,5,5,5,8.5c0,5.5-4.4,9.9-9.9,9.9
			c-4,0-7.2,3.3-7.2,7.3c0,38.7-31.3,70.1-69.9,70.1S74.8,204.4,74.8,165.7z M180.2,242.4v17.9c0,19.7-16,35.7-35.6,35.7
			c-19.6,0-35.5-16-35.6-35.6c0,0,0-0.1,0-0.1v-17.9c10.8,5.1,22.9,7.9,35.6,7.9S169.4,247.5,180.2,242.4z M190.2,313.5
			c-12.7,10.9-28.8,17-45.6,17c-32.8,0-61.2-23.2-68.2-54.9l19-5.7c4.4,23.2,24.8,40.8,49.2,40.8c24.4,0,44.7-17.6,49.2-40.8l19,5.7
			C209.6,290.2,201.6,303.6,190.2,313.5z"/>
	</g>
</g>
<g>
	<g>
		<path class="st0" d="M166.3,185.9c-3.1-2.5-7.7-2.1-10.2,1.1c-3.1,3.8-7.2,5.9-11.5,5.9s-8.4-2.1-11.5-5.9
			c-2.5-3.1-7.1-3.6-10.2-1.1c-3.1,2.5-3.6,7.1-1.1,10.2c5.8,7.2,14.1,11.3,22.8,11.3s17-4.1,22.8-11.3
			C169.9,193,169.4,188.4,166.3,185.9z"/>
	</g>
</g>
<g>
	<g>
		<path class="st0" d="M110.4,141.2c-4,0-7.2,3.3-7.2,7.3v8.6c0,4,3.2,7.3,7.2,7.3s7.2-3.3,7.2-7.3v-8.6
			C117.6,144.5,114.4,141.2,110.4,141.2z"/>
	</g>
</g>
<g>
	<g>
		<path class="st0" d="M178.9,141.2c-4,0-7.2,3.3-7.2,7.3v8.6c0,4,3.2,7.3,7.2,7.3s7.2-3.3,7.2-7.3v-8.6
			C186.1,144.5,182.9,141.2,178.9,141.2z"/>
	</g>
</g>
<g>
	<g>
		<path class="st0" d="M396.4,231.5c-3.1-2.5-7.7-2.1-10.2,1.1c-3.1,3.8-7.2,5.9-11.5,5.9s-8.4-2.1-11.5-5.9
			c-2.5-3.1-7.1-3.6-10.2-1.1c-3.1,2.5-3.6,7.1-1.1,10.2c5.8,7.2,14.1,11.3,22.8,11.3c8.7,0,17-4.1,22.8-11.3
			C400,238.6,399.5,234,396.4,231.5z"/>
	</g>
</g>
<g>
	<g>
		<path class="st0" d="M340.5,186.8c-4,0-7.2,3.3-7.2,7.3v8.6c0,4,3.2,7.3,7.2,7.3s7.2-3.3,7.2-7.3v-8.6
			C347.7,190.1,344.5,186.8,340.5,186.8z"/>
	</g>
</g>
<g>
	<g>
		<path class="st0" d="M409,186.8c-4,0-7.2,3.3-7.2,7.3v8.6c0,4,3.2,7.3,7.2,7.3s7.2-3.3,7.2-7.3v-8.6
			C416.2,190.1,413,186.8,409,186.8z"/>
	</g>
</g>
<g>
	<g>
		<path class="st0" d="M482.4,333.1l-58.7-23.6c-0.5-0.2-1-0.4-1.4-0.7c39.8-8,58.4-15.6,59.2-15.9c3-1.2,4.8-4.4,4.4-7.6
			c-0.1-0.7-8.5-69-8.5-128.1c0-56.2-45.5-101.9-101.5-101.9s-101.5,45.7-101.5,101.9c0,59-8.4,127.4-8.5,128.1
			c-0.4,3.3,1.4,6.4,4.4,7.6c0.8,0.3,19.5,7.9,59.2,15.9c-0.4,0.3-0.9,0.5-1.4,0.7l-58.7,23.6c-12.6,5.1-20.7,17.1-20.7,30.7V382
			H229v-34l16.4-32.9c1.8-3.6,0.3-8-3.2-9.8c-3.6-1.8-7.9-0.3-9.7,3.3l-17.1,34.4c-0.5,1-0.8,2.1-0.8,3.3v137.6c0,4,3.2,7.3,7.2,7.3
			s7.2-3.3,7.2-7.3v-87.3h19.8v9.9c0,1.9,0.8,3.8,2.1,5.1c1.4,1.4,3.2,2.1,5.1,2.1c0,0,0,0,0,0h1.3v70.1c0,4,3.2,7.3,7.2,7.3
			s7.2-3.3,7.2-7.3v-70.1h19.8v70.1c0,4,3.2,7.3,7.2,7.3s7.2-3.3,7.2-7.3v-94.6c0-4-3.2-7.3-7.2-7.3s-7.2,3.3-7.2,7.3v9.9h-28.4
			v-35.5c0-7.6,4.6-14.4,11.6-17.2l28.9-11.6c9.9,31.4,39,53,72.2,53s62.3-21.6,72.2-53l28.9,11.6c7,2.8,11.6,9.6,11.6,17.2v35.5
			h-28.4v-9.9c0-4-3.2-7.3-7.2-7.3s-7.2,3.3-7.2,7.3v94.6c0,4,3.2,7.3,7.2,7.3s7.2-3.3,7.2-7.3v-70.1h19.8v70.1c0,4,3.2,7.3,7.2,7.3
			s7.2-3.3,7.2-7.3v-70.1h1.3c4,0,7.2-3.3,7.2-7.3v-42.7C503.1,350.2,495,338.1,482.4,333.1z M288.9,157.1c0-48.2,39-87.3,87-87.3
			s87,39.2,87,87.3c0,49.9,5.9,106.2,7.9,124.1c-8,2.7-25.6,8.1-53.4,13.7v-12.5c4-2.3,7.9-4.9,11.5-7.8
			c14.7-11.9,25.1-28.7,29.3-47.1c1.4-6.1,2.1-12.5,2.1-18.8c0-42.3-30.5-48.4-60.1-54.3c-18.9-3.8-38.4-7.7-54-20.2
			c-1.7-1.4-3.9-1.9-6.1-1.4c-2.1,0.5-3.9,1.9-4.9,3.8c0,0.1-4.1,8.1-11,15.9c-5.8,6.6-14.9,14.5-25.4,14.5c-3.6,0-6.9,0.8-10,2.2
			C288.9,165.1,288.9,161.1,288.9,157.1z M375.9,278.8c-16.2,0-31.3-5.4-43.9-15.6c-12.2-9.9-20.8-23.7-24.3-39
			c-1.1-5.1-1.7-10.3-1.7-15.6c0-4-3.2-7.3-7.2-7.3c-5.5,0-9.9-4.5-9.9-9.9c0-5.5,4.4-9.9,9.9-9.9c22,0,37.9-20,45.1-31.1
			c16.9,10.9,36.2,14.8,53.5,18.2c31.8,6.3,48.4,11,48.4,40.1c0,5.3-0.6,10.5-1.7,15.6c-3.4,15.2-12.1,29.1-24.3,39
			C407.3,273.5,392.1,278.8,375.9,278.8z M281,281.2c1.3-11.3,4.1-37.8,6-68.4c1.5,0.8,3.1,1.6,4.8,2.1c0.3,4.2,0.9,8.5,1.9,12.6
			c4.2,18.4,14.6,35.1,29.3,47.1c3.6,2.9,7.5,5.5,11.5,7.8v12.5C306.6,289.4,289,284,281,281.2z M375.9,373.4
			c-27.2,0-51-17.9-58.7-43.9l16.4-6.6c9.3-3.7,15.3-12.7,15.3-22.7v-11.4c8.7,2.9,17.8,4.5,27,4.5s18.4-1.6,27-4.5v11.4
			c0,10.1,6,19,15.3,22.7l16.4,6.6C427,355.5,403.1,373.4,375.9,373.4z"/>
	</g>
</g>
</svg>
