<?xml version="1.0" encoding="utf-8"?>
<!-- Generator: Adobe Illustrator 23.0.4, SVG Export Plug-In . SVG Version: 6.00 Build 0)  -->
<svg version="1.1" id="Capa_1" xmlns="http://www.w3.org/2000/svg" xmlns:xlink="http://www.w3.org/1999/xlink" x="0px" y="0px"
	 viewBox="0 0 512 512" style="enable-background:new 0 0 512 512;" xml:space="preserve">
<style type="text/css">
	.st0{fill:#FFDB0C;}
	.st1{fill:#FBBF00;}
	.st2{fill:#F1F1F2;}
	.st3{fill:#E6E6E6;}
</style>
<path class="st0" d="M256,512L256,512c139.7-52.3,232.3-185.7,232.3-334.9V86.7c-47.9,0-86.7-38.8-86.7-86.7H256H110.4
	c0,47.9-38.8,86.7-86.7,86.7v90.4C23.7,326.3,116.3,459.7,256,512L256,512z"/>
<path class="st1" d="M256,512L256,512c139.7-52.3,232.3-185.7,232.3-334.9V86.7c-47.9,0-86.7-38.8-86.7-86.7H256
	C256,0,256,398,256,512L256,512z"/>
<polygon class="st2" points="223.6,326.3 146.6,249.3 189.1,206.9 223.6,241.4 322.9,142.1 365.4,184.6 "/>
<polygon class="st3" points="256,293.9 256,209.1 322.9,142.1 365.4,184.6 "/>
</svg>
